# xmcd CD database file
#
# Track frame offsets:
#	150
#	13920
#	29605
#	54625
#
# Disc length: 1115 seconds
#
# Revision: 3
# Processed by: cddbd v1.4PL0 Copyright (c) Steve Scherf et al.
# Submitted via: CDex 1.40Beta9
#
DISCID=31045904
DTITLE=Dr. Dre - Bad Intentions (Maxi)
DYEAR=2001
DGENRE=HipHop
TTITLE0=Bad Intentions feat Knoc-turn´al (Album version)
TTITLE1=The Watcher (Album Version)
TTITLE2=Bad Intentions (Instrumental)
TTITLE3=Bad Intentions (Video)
EXTD=YEAR: 2001
EXTT0=
EXTT1=
EXTT2=
EXTT3=
PLAYORDER=
